<svg width="82" height="124" viewBox="0 0 82 124" fill="none" xmlns="http://www.w3.org/2000/svg">
<path d="M50.9439 86C50.8585 86 50.8159 85.872 50.8159 85.616C50.8159 85.36 50.8585 85.232 50.9439 85.232C52.5652 85.232 53.7599 85.1253 54.5279 84.912C55.2959 84.6987 55.8079 84.2933 56.0639 83.696C56.3625 83.056 56.5119 82.096 56.5119 80.816V51.184C56.5119 49.904 56.3625 48.9653 56.0639 48.368C55.8079 47.7707 55.2959 47.3653 54.5279 47.152C53.8025 46.896 52.6292 46.768 51.0079 46.768C50.9225 46.768 50.8799 46.64 50.8799 46.384C50.8799 46.128 50.9225 46 51.0079 46H76.7359C77.1199 46 77.3119 46.192 77.3119 46.576L77.4399 54.448C77.4399 54.576 77.3119 54.6613 77.0559 54.704C76.8425 54.704 76.7359 54.64 76.7359 54.512C76.6079 52.2507 75.9252 50.5013 74.6879 49.264C73.4505 47.984 71.8079 47.344 69.7599 47.344H65.8559C64.4052 47.344 63.3172 47.4507 62.5919 47.664C61.8665 47.8773 61.3545 48.2613 61.0559 48.816C60.7572 49.3707 60.6079 50.1813 60.6079 51.248V80.56C60.6079 81.9253 60.7785 82.928 61.1199 83.568C61.5039 84.1653 62.2292 84.592 63.2959 84.848C64.4052 85.104 66.1119 85.232 68.4159 85.232C68.5439 85.232 68.6079 85.36 68.6079 85.616C68.6079 85.872 68.5439 86 68.4159 86C66.6665 86 65.3012 85.9787 64.3199 85.936L58.5599 85.872L54.2079 85.936C53.4399 85.9787 52.3519 86 50.9439 86ZM73.4719 71.856C73.4719 69.9787 72.9599 68.6347 71.9359 67.824C70.9545 67.0133 69.2905 66.608 66.9439 66.608H58.6879V65.264H67.1359C69.3972 65.264 70.9972 64.9227 71.9359 64.24C72.9172 63.5147 73.4079 62.3627 73.4079 60.784C73.4079 60.6987 73.5359 60.656 73.7919 60.656C74.0479 60.656 74.1759 60.6987 74.1759 60.784L74.1119 65.968C74.1119 67.2053 74.1332 68.144 74.1759 68.784L74.2399 71.856C74.2399 71.9413 74.1119 71.984 73.8559 71.984C73.5999 71.984 73.4719 71.9413 73.4719 71.856Z" fill="black"/>
<path d="M43.8159 18.296C45.8639 18.296 47.9332 18.488 50.0239 18.872C52.1145 19.256 53.7785 19.8107 55.0159 20.536C55.3999 20.7067 55.6345 20.8987 55.7199 21.112C55.8479 21.2827 55.9332 21.6027 55.9759 22.072L56.6799 29.24C56.6799 29.368 56.5732 29.4533 56.3599 29.496C56.1465 29.496 56.0185 29.432 55.9759 29.304C55.0372 26.0187 53.2879 23.608 50.7279 22.072C48.2105 20.4933 45.0745 19.704 41.3199 19.704C38.0772 19.704 35.2399 20.4293 32.8079 21.88C30.3759 23.288 28.4985 25.2933 27.1759 27.896C25.8532 30.4987 25.1919 33.5067 25.1919 36.92C25.1919 40.888 26.0025 44.5573 27.6239 47.928C29.2879 51.2987 31.5065 53.9653 34.2799 55.928C37.0959 57.8907 40.1252 58.872 43.3679 58.872C46.4399 58.872 49.1065 58.04 51.3679 56.376C53.6292 54.6693 55.3572 52.0667 56.5519 48.568C56.5519 48.44 56.6372 48.376 56.8079 48.376C56.9359 48.376 57.0425 48.3973 57.1279 48.44C57.2559 48.4827 57.3199 48.5467 57.3199 48.632L56.4239 55.864C56.3385 56.376 56.2319 56.7173 56.1039 56.888C56.0185 57.016 55.7839 57.1653 55.3999 57.336C51.5599 58.9573 47.5065 59.768 43.2399 59.768C38.1199 59.768 33.8319 58.744 30.3759 56.696C26.9625 54.6053 24.4452 51.96 22.8239 48.76C21.2025 45.56 20.3919 42.1893 20.3919 38.648C20.3919 34.7227 21.4799 31.2027 23.6559 28.088C25.8319 24.9733 28.7119 22.5627 32.2959 20.856C35.8799 19.1493 39.7199 18.296 43.8159 18.296Z" fill="black"/>
<path d="M22.9759 104.936C22.9332 105.107 22.6985 105.192 22.2719 105.192C21.9305 105.192 21.6959 105.107 21.5679 104.936L5.63186 70.312C4.86386 68.6053 4.09586 67.432 3.32786 66.792C2.55986 66.1093 1.51453 65.768 0.191859 65.768C0.0638594 65.768 -0.000140637 65.64 -0.000140637 65.384C-0.000140637 65.128 0.0638594 65 0.191859 65L2.62386 65.064C3.81853 65.1493 4.77853 65.192 5.50386 65.192C7.03986 65.192 8.70386 65.1493 10.4959 65.064L13.1199 65C13.2479 65 13.3119 65.128 13.3119 65.384C13.3119 65.64 13.2479 65.768 13.1199 65.768C11.8399 65.768 10.8799 65.9173 10.2399 66.216C9.64253 66.5147 9.34386 67.0267 9.34386 67.752C9.34386 68.392 9.55719 69.16 9.98386 70.056L24.1919 100.584L21.8879 103.656L30.2719 82.728L31.2319 84.136L22.9759 104.936ZM60.0959 65C60.1812 65 60.2239 65.128 60.2239 65.384C60.2239 65.64 60.1812 65.768 60.0959 65.768C58.6452 65.768 57.3865 66.152 56.3199 66.92C55.2532 67.688 54.3359 68.9893 53.5679 70.824L39.9359 104.936C39.8932 105.107 39.6585 105.192 39.2319 105.192C38.8905 105.192 38.6559 105.107 38.5279 104.936L22.6559 70.312C21.8879 68.648 21.1199 67.4747 20.3519 66.792C19.5839 66.1093 18.5812 65.768 17.3439 65.768C17.2159 65.768 17.1519 65.64 17.1519 65.384C17.1519 65.128 17.2159 65 17.3439 65L19.7759 65.064C20.8852 65.1493 21.8025 65.192 22.5279 65.192C23.7225 65.192 24.9599 65.1493 26.2399 65.064L27.9679 65C28.0959 65 28.1599 65.128 28.1599 65.384C28.1599 65.64 28.0959 65.768 27.9679 65.768C27.1999 65.768 26.6452 65.8533 26.3039 66.024C25.9625 66.152 25.7919 66.408 25.7919 66.792C25.7919 67.304 26.1759 68.392 26.9439 70.056L41.2159 100.584L38.9119 103.656L52.1599 70.568C52.5012 69.672 52.6719 68.968 52.6719 68.456C52.6719 67.5173 52.2665 66.8347 51.4559 66.408C50.6879 65.9813 49.4719 65.768 47.8079 65.768C47.6799 65.768 47.6159 65.64 47.6159 65.384C47.6159 65.128 47.6799 65 47.8079 65L50.4959 65.064C51.9465 65.1493 53.2479 65.192 54.3999 65.192C55.2532 65.192 56.2345 65.1493 57.3439 65.064L60.0959 65ZM35.4559 70.44C35.9679 69.288 36.2239 68.3493 36.2239 67.624C36.2239 66.3867 35.3065 65.768 33.4719 65.768C33.3439 65.768 33.2799 65.64 33.2799 65.384C33.2799 65.128 33.3439 65 33.4719 65L34.9439 65.064C35.7972 65.1493 36.6932 65.192 37.6319 65.192C38.4852 65.192 39.4665 65.1493 40.5759 65.064L43.1999 65C43.2852 65 43.3279 65.128 43.3279 65.384C43.3279 65.64 43.2852 65.768 43.1999 65.768C41.7492 65.768 40.5119 66.152 39.4879 66.92C38.5065 67.6453 37.6319 68.9467 36.8639 70.824L31.5519 84.136L30.5919 82.728L35.4559 70.44Z" fill="black"/>
</svg>
